<svg width="149" height="165" viewBox="0 0 149 165" fill="none" xmlns="http://www.w3.org/2000/svg">
<g clip-path="url(#clip0_193_3072)">
<path fill-rule="evenodd" clip-rule="evenodd" d="M27.4947 6.83656C16.5988 67.6422 59.2122 113.179 111.38 137.723C112.275 138.146 112.662 139.217 112.239 140.112C111.816 141.007 110.746 141.395 109.85 140.971C56.2205 115.744 12.7598 68.71 23.9619 6.20102C24.1345 5.22685 25.0677 4.57841 26.0461 4.75239C27.0203 4.92494 27.6687 5.85808 27.4947 6.83656Z" fill="white"/>
<path fill-rule="evenodd" clip-rule="evenodd" d="M109.636 138.894C107.81 136.321 105.484 133.117 105.231 132.746C98.3641 122.685 93.4263 112.098 89.8646 100.423C89.5743 99.4756 90.1109 98.4701 91.0581 98.1799C92.0054 97.8896 93.0107 98.4261 93.301 99.3734C96.7511 110.696 101.537 120.965 108.199 130.723C108.587 131.292 113.821 138.491 114.77 140.026C115.162 140.654 115.189 141.131 115.184 141.244C115.184 141.846 114.935 142.235 114.685 142.496C114.401 142.788 113.815 143.156 112.921 143.144C111.985 143.128 110.063 142.619 109.567 142.53C102.085 141.206 93.849 139.076 85.8444 138.657C78.2108 138.256 70.7785 139.414 64.5211 144.618C63.7599 145.252 62.6253 145.145 61.991 144.384C61.3568 143.623 61.4634 142.488 62.2246 141.854C69.2216 136.037 77.4998 134.622 86.0302 135.069C93.9876 135.487 102.167 137.541 109.636 138.894Z" fill="white"/>
</g>
<defs>
<clipPath id="clip0_193_3072">
<rect width="130" height="130" fill="white" transform="matrix(-0.948484 -0.316826 -0.316826 0.948484 148.777 41.1875)"/>
</clipPath>
</defs>
</svg>
