<svg width="178" height="178" viewBox="0 0 178 178" fill="none" xmlns="http://www.w3.org/2000/svg">
<g clip-path="url(#clip0_226_3292)">
<path fill-rule="evenodd" clip-rule="evenodd" d="M7.09934 64.8994C64.6525 42.4567 117.567 75.4653 151.731 121.906C152.319 122.702 153.444 122.875 154.241 122.287C155.037 121.699 155.211 120.574 154.622 119.777C119.505 72.0344 64.9583 38.4837 5.79299 61.5561C4.87054 61.9137 4.41469 62.9546 4.7745 63.881C5.13208 64.8035 6.17294 65.2592 7.09934 64.8994Z" fill="white"/>
<path fill-rule="evenodd" clip-rule="evenodd" d="M152.536 119.969C149.659 118.675 146.066 117.012 145.653 116.835C134.454 112.042 123.112 109.244 110.969 108.006C109.984 107.904 109.101 108.625 108.999 109.61C108.898 110.596 109.618 111.479 110.604 111.58C122.38 112.777 133.38 115.488 144.242 120.138C144.875 120.409 152.95 124.153 154.639 124.787C155.331 125.051 155.804 124.985 155.914 124.959C156.505 124.842 156.839 124.522 157.046 124.227C157.278 123.892 157.526 123.245 157.341 122.371C157.144 121.456 156.274 119.668 156.091 119.199C153.345 112.113 149.663 104.444 147.705 96.6718C145.837 89.2595 145.536 81.7436 149.433 74.5985C149.908 73.729 149.584 72.6364 148.714 72.1612C147.845 71.6861 146.752 72.01 146.277 72.8794C141.922 80.8688 142.134 89.2643 144.221 97.5475C146.169 105.274 149.765 112.903 152.536 119.969Z" fill="white"/>
</g>
<defs>
<clipPath id="clip0_226_3292">
<rect width="130" height="130" fill="white" transform="translate(64.2422 177.258) rotate(-119.615)"/>
</clipPath>
</defs>
</svg>
