<svg width="230" height="230" viewBox="0 0 230 230" fill="none" xmlns="http://www.w3.org/2000/svg">
<rect width="230" height="230" fill="white" fill-opacity="0.04"/>
<g clip-path="url(#clip0_195_3235)">
<path d="M155 75H75V155H155V75Z" fill="#330000"/>
<path d="M128.828 102.295C129.644 103.072 130.731 103.511 131.853 103.477C133.008 103.545 134.164 103.106 134.945 102.295C135.761 101.451 136.169 100.336 136.135 99.188C136.169 98.0734 135.761 96.9927 135.013 96.1821C134.266 95.4053 133.246 95 131.921 95C130.799 95 129.712 95.4053 128.896 96.1821C128.081 96.9589 127.639 98.0396 127.673 99.188C127.639 100.336 128.047 101.451 128.828 102.295Z" fill="#FF9A00"/>
<path d="M128.047 106.787V132.793C128.047 133.131 128.217 133.333 128.557 133.333H135.217C135.523 133.333 135.659 133.164 135.659 132.793V106.787C135.659 106.483 135.523 106.314 135.217 106.314H128.489C128.183 106.314 128.047 106.449 128.047 106.787Z" fill="#FF9A00"/>
<path fill-rule="evenodd" clip-rule="evenodd" d="M100.861 124.755H113.503L116.289 132.793C116.357 133.029 116.595 133.198 116.833 133.164H123.935C124.275 133.164 124.377 132.995 124.275 132.624L111.872 97.8368C111.838 97.6679 111.702 97.5666 111.43 97.5666H102.628C102.459 97.6004 102.323 97.7692 102.357 97.9381C102.357 98.6811 102.289 99.4241 102.153 100.133C102.056 100.421 101.977 100.691 101.903 100.944C101.872 101.048 101.843 101.149 101.813 101.248L90.8706 132.556C90.7687 132.962 90.8706 133.164 91.2444 133.164H97.6331C97.9389 133.198 98.2108 132.995 98.2787 132.691L100.861 124.755ZM111.464 117.898H102.832C103.342 116.48 103.852 114.893 104.328 113.17C104.664 112.125 104.988 111.079 105.306 110.05C105.502 109.416 105.697 108.789 105.891 108.172C106.367 106.719 106.74 105.267 107.046 103.815H107.114C107.247 104.267 107.379 104.739 107.518 105.233C107.628 105.625 107.741 106.031 107.862 106.449C108.134 107.429 108.439 108.408 108.779 109.455C108.949 109.978 109.111 110.494 109.272 111.009C109.433 111.524 109.595 112.039 109.765 112.562C110.071 113.575 110.376 114.555 110.682 115.467C110.988 116.345 111.26 117.189 111.464 117.898Z" fill="#FF9A00"/>
</g>
<defs>
<clipPath id="clip0_195_3235">
<rect width="80" height="80" fill="white" transform="translate(75 75)"/>
</clipPath>
</defs>
</svg>
