<svg width="230" height="230" viewBox="0 0 230 230" fill="none" xmlns="http://www.w3.org/2000/svg">
<rect width="230" height="230" fill="white" fill-opacity="0.04"/>
<path d="M174.166 121.201C173.962 121.201 173.776 121.333 173.68 121.607C172.45 125.104 170.788 127.183 169.42 127.183C168.634 127.183 168.316 126.311 168.316 124.942C168.316 121.518 170.374 114.256 171.412 110.945C171.532 110.545 171.61 110.186 171.61 109.882C171.61 108.919 171.082 108.447 169.774 108.447C168.364 108.447 166.846 108.997 165.37 111.573C164.86 109.302 163.318 108.31 161.164 108.31C158.674 108.31 156.268 109.905 154.288 112.493C152.308 115.081 149.98 115.93 148.228 115.511C149.488 112.439 149.956 110.144 149.956 108.441C149.956 105.77 148.63 104.156 146.488 104.156C143.23 104.156 141.352 107.252 141.352 110.509C141.352 113.025 142.498 115.613 145.018 116.868C142.906 121.625 139.822 125.928 138.652 125.928C137.14 125.928 136.696 118.559 136.78 113.288C136.834 110.264 137.086 110.109 137.086 109.194C137.086 108.668 136.744 108.31 135.37 108.31C132.166 108.31 131.176 111.011 131.026 114.113C130.978 115.292 130.792 116.461 130.474 117.597C129.136 122.354 126.376 125.964 124.576 125.964C123.742 125.964 123.514 125.134 123.514 124.046C123.514 120.621 125.44 116.342 125.44 112.69C125.44 110.007 124.258 108.31 122.032 108.31C119.41 108.31 115.942 111.417 112.66 117.239C113.74 112.78 114.184 108.465 110.986 108.465C110.292 108.475 109.611 108.652 109 108.979C108.795 109.075 108.623 109.229 108.508 109.423C108.392 109.617 108.338 109.842 108.352 110.067C108.658 114.812 104.512 126.968 100.582 126.968C99.868 126.968 99.52 126.197 99.52 124.954C99.52 121.524 101.572 114.28 102.604 110.963C102.736 110.533 102.808 110.162 102.808 109.84C102.808 108.931 102.244 108.465 100.966 108.465C99.562 108.465 98.038 108.997 96.568 111.573C96.052 109.302 94.51 108.31 92.356 108.31C88.822 108.31 84.874 112.033 83.14 116.886C80.818 123.365 76.138 129.622 69.838 129.622C64.12 129.622 61.102 124.883 61.102 117.394C61.102 106.583 69.07 97.7492 74.98 97.7492C77.806 97.7492 79.156 99.5421 79.156 102.291C79.156 105.62 77.29 107.168 77.29 108.435C77.29 108.824 77.614 109.206 78.256 109.206C80.824 109.206 83.848 106.2 83.848 102.1C83.848 98.0002 80.506 95 74.596 95C64.828 95 55 104.79 55 117.334C55 127.315 59.944 133.333 68.494 133.333C74.326 133.333 79.42 128.815 82.168 123.544C82.48 127.913 84.472 130.196 87.508 130.196C90.208 130.196 92.392 128.594 94.06 125.779C94.702 128.725 96.406 130.166 98.62 130.166C101.158 130.166 103.282 128.564 105.304 125.588C105.274 127.925 105.808 130.124 107.842 130.124C108.802 130.124 109.948 129.903 110.152 129.066C112.294 120.245 117.586 113.043 119.206 113.043C119.686 113.043 119.818 113.503 119.818 114.047C119.818 116.444 118.12 121.356 118.12 124.494C118.12 127.883 119.566 130.124 122.554 130.124C125.866 130.124 129.232 126.084 131.476 120.179C132.178 125.695 133.696 130.148 136.072 130.148C138.988 130.148 144.166 124.034 147.304 117.561C148.534 117.717 150.382 117.675 152.158 116.426C151.402 118.332 150.958 120.418 150.958 122.504C150.958 128.51 153.838 130.196 156.316 130.196C159.01 130.196 161.194 128.594 162.868 125.779C163.42 128.319 164.83 130.16 167.422 130.16C171.478 130.16 175 126.03 175 122.641C175 121.745 174.616 121.201 174.166 121.201ZM89.98 126.867C88.342 126.867 87.7 125.223 87.7 122.773C87.7 118.518 90.622 111.412 93.712 111.412C95.062 111.412 95.572 112.995 95.572 114.932C95.572 119.253 92.794 126.867 89.98 126.867ZM146.086 114.167C145.108 113.007 144.754 111.429 144.754 110.025C144.754 108.292 145.39 106.827 146.152 106.827C146.914 106.827 147.148 107.575 147.148 108.614C147.148 110.354 146.524 112.894 146.086 114.167ZM158.788 126.867C157.15 126.867 156.508 124.978 156.508 122.773C156.508 118.667 159.43 111.412 162.544 111.412C163.894 111.412 164.374 112.983 164.374 114.932C164.374 119.253 161.644 126.867 158.788 126.867Z" fill="#1A79D8"/>
</svg>
