<svg width="230" height="230" viewBox="0 0 230 230" fill="none" xmlns="http://www.w3.org/2000/svg">
<rect width="230" height="230" fill="white" fill-opacity="0.04"/>
<g clip-path="url(#clip0_195_3229)">
<path d="M115.14 115C115.14 108.864 120.114 103.889 126.251 103.889C132.387 103.889 137.362 108.864 137.362 115C137.362 121.137 132.387 126.111 126.251 126.111C120.114 126.111 115.14 121.137 115.14 115Z" fill="#1ABCFE"/>
<path d="M92.9167 137.222C92.9167 131.086 97.8913 126.111 104.028 126.111H115.139V137.222C115.139 143.359 110.164 148.333 104.028 148.333C97.8913 148.333 92.9167 143.359 92.9167 137.222Z" fill="#0ACF83"/>
<path d="M115.14 81.6667V103.889H126.251C132.387 103.889 137.362 98.9144 137.362 92.7779C137.362 86.6414 132.387 81.6667 126.251 81.6667H115.14Z" fill="#FF7262"/>
<path d="M92.9167 92.7779C92.9167 98.9144 97.8913 103.889 104.028 103.889H115.139V81.6667H104.028C97.8913 81.6667 92.9167 86.6414 92.9167 92.7779Z" fill="#F24E1E"/>
<path d="M92.9167 115C92.9167 121.137 97.8913 126.111 104.028 126.111H115.139V103.889H104.028C97.8913 103.889 92.9167 108.864 92.9167 115Z" fill="#A259FF"/>
</g>
<defs>
<clipPath id="clip0_195_3229">
<rect width="100" height="100" fill="white" transform="translate(65 65)"/>
</clipPath>
</defs>
</svg>
