<svg width="230" height="230" viewBox="0 0 230 230" fill="none" xmlns="http://www.w3.org/2000/svg">
<rect width="230" height="230" fill="white" fill-opacity="0.04"/>
<path d="M20.7712 133.401V96.9249L53.0384 85L70.5744 90.6117V139.714L53.0384 145L20.7712 133.401L53.0384 137.284V94.8209L31.9942 99.7311V128.491L20.7712 133.401Z" fill="#EB3C00"/>
<path d="M104.94 133.657C99.8603 133.657 95.7927 131.983 92.7369 128.636C89.681 125.289 88.1531 120.934 88.1531 115.571C88.1531 109.809 89.7101 105.213 92.8242 101.783C95.9384 98.3522 100.177 96.637 105.539 96.637C110.485 96.637 114.469 98.3023 117.492 101.633C120.514 104.964 122.026 109.318 122.026 114.698C122.026 120.543 120.477 125.164 117.38 128.562C114.282 131.959 110.135 133.658 104.939 133.658L104.94 133.657ZM105.239 100.433C101.476 100.433 98.4199 101.79 96.0717 104.505C93.7236 107.219 92.5495 110.783 92.5495 115.196C92.5495 119.61 93.6944 123.161 95.9842 125.85C98.2741 128.54 101.259 129.885 104.94 129.885C108.87 129.885 111.967 128.602 114.232 126.038C116.497 123.473 117.629 119.884 117.629 115.271C117.629 110.542 116.53 106.886 114.332 104.305C112.134 101.724 109.103 100.433 105.239 100.433H105.239Z" fill="#EB3C00"/>
<path d="M136.953 94.6361C134.639 94.6361 132.715 95.4246 131.166 96.9816C129.618 98.5388 128.843 100.657 128.843 103.339V107.482H124.48V110.989H128.843V133.063H132.92V110.989H142.894V133.063H146.971V110.989H152.955V107.482H146.971V103.536C146.971 99.9221 148.403 98.1215 151.268 98.1215C152.283 98.1215 153.186 98.3295 153.986 98.7791V95.0964C153.253 94.7967 152.275 94.6361 151.026 94.6361C148.712 94.6361 146.766 95.4245 145.217 96.9815C143.669 98.5387 142.894 100.657 142.894 103.339V107.482H132.92V103.536C132.92 99.9221 134.352 98.1214 137.216 98.1214C138.232 98.1214 139.135 98.3294 139.935 98.779V95.0963C139.202 94.7966 138.202 94.636 136.953 94.636L136.953 94.6361Z" fill="#EB3C00"/>
<path d="M158.914 100.979C158.181 100.979 157.556 100.729 157.04 100.229C156.524 99.7297 156.266 99.0969 156.266 98.3308C156.266 97.5648 156.524 96.9277 157.04 96.4198C157.556 95.912 158.181 95.658 158.914 95.658C159.663 95.658 160.3 95.912 160.825 96.4198C161.349 96.9278 161.611 97.5648 161.611 98.3308C161.611 99.0636 161.349 99.688 160.825 100.204C160.3 100.721 159.663 100.979 158.914 100.979V100.979ZM160.912 133.053H156.815V107.473H160.912V133.053Z" fill="#EB3C00"/>
<path d="M184.185 131.879C182.22 133.061 179.888 133.652 177.191 133.652C173.543 133.652 170.6 132.466 168.36 130.093C166.12 127.72 165 124.643 165 120.863C165 116.649 166.208 113.265 168.622 110.708C171.037 108.152 174.259 106.874 178.29 106.874C180.538 106.874 182.519 107.29 184.235 108.123V112.319C182.336 110.987 180.305 110.321 178.14 110.321C175.525 110.321 173.381 111.258 171.707 113.131C170.034 115.005 169.197 117.465 169.197 120.513C169.197 123.51 169.984 125.875 171.557 127.607C173.131 129.339 175.242 130.205 177.89 130.205C180.121 130.205 182.22 129.464 184.185 127.982L184.185 131.879Z" fill="#EB3C00"/>
<path d="M209.229 121.289H191.168C191.235 124.137 192.001 126.335 193.466 127.883C194.932 129.432 196.947 130.207 199.512 130.207C202.393 130.207 205.04 129.257 207.455 127.359V131.206C205.207 132.838 202.234 133.654 198.537 133.654C194.924 133.654 192.084 132.492 190.019 130.169C187.954 127.846 186.922 124.578 186.922 120.364C186.922 116.384 188.05 113.141 190.306 110.635C192.563 108.129 195.365 106.875 198.712 106.875C202.06 106.876 204.649 107.958 206.481 110.123C208.313 112.288 209.229 115.294 209.229 119.141L209.229 121.289ZM205.032 117.817C205.015 115.452 204.445 113.612 203.321 112.296C202.197 110.981 200.636 110.323 198.637 110.323C196.705 110.323 195.065 111.014 193.716 112.396C192.367 113.778 191.535 115.585 191.218 117.817H205.032Z" fill="#EB3C00"/>
</svg>
