<svg width="230" height="230" viewBox="0 0 230 230" fill="none" xmlns="http://www.w3.org/2000/svg">
<rect width="230" height="230" fill="white" fill-opacity="0.04"/>
<g clip-path="url(#clip0_195_3231)">
<path fill-rule="evenodd" clip-rule="evenodd" d="M93.1627 93.0174C95.3242 94.7735 96.1351 94.6395 100.194 94.3687L138.46 92.071C139.272 92.071 138.597 91.2614 138.326 91.1268L131.971 86.5325C130.753 85.5871 129.131 84.5044 126.022 84.7753L88.9686 87.4778C87.6172 87.6118 87.3474 88.2875 87.8855 88.829L93.1627 93.0174ZM95.4601 101.935V142.198C95.4601 144.362 96.5414 145.171 98.9751 145.037L141.029 142.604C143.464 142.47 143.736 140.982 143.736 139.224V99.2315C143.736 97.4766 143.061 96.5302 141.57 96.6653L97.6229 99.2315C96.001 99.3678 95.4601 100.179 95.4601 101.935ZM136.976 104.095C137.246 105.312 136.976 106.528 135.756 106.665L133.73 107.069V136.793C131.971 137.739 130.349 138.279 128.997 138.279C126.832 138.279 126.29 137.603 124.669 135.578L111.415 114.771V134.902L115.609 135.848C115.609 135.848 115.609 138.279 112.225 138.279L102.897 138.82C102.626 138.279 102.897 136.929 103.843 136.659L106.278 135.984V109.366L102.898 109.096C102.627 107.878 103.302 106.123 105.196 105.987L115.203 105.313L128.997 126.391V107.744L125.48 107.341C125.21 105.853 126.29 104.772 127.643 104.638L136.976 104.095ZM85.8575 83.83L124.399 80.9917C129.131 80.5858 130.349 80.8577 133.324 83.0186L145.627 91.6656C147.657 93.1526 148.333 93.5574 148.333 95.1784V142.604C148.333 145.576 147.251 147.334 143.465 147.603L98.7073 150.306C95.8656 150.441 94.5132 150.036 93.025 148.143L83.9651 136.389C82.3418 134.225 81.6667 132.606 81.6667 130.712V88.5572C81.6667 86.1266 82.7498 84.0991 85.8575 83.83Z" fill="white" fill-opacity="0.7"/>
</g>
<defs>
<clipPath id="clip0_195_3231">
<rect width="100" height="100" fill="white" transform="translate(65 65)"/>
</clipPath>
</defs>
</svg>
