<svg width="230" height="230" viewBox="0 0 230 230" fill="none" xmlns="http://www.w3.org/2000/svg">
<rect width="230" height="230" fill="white" fill-opacity="0.04"/>
<g clip-path="url(#clip0_195_3224)">
<rect width="80" height="80" transform="translate(75 75)" fill="#001E36"/>
<path fill-rule="evenodd" clip-rule="evenodd" d="M92.5 97.2439V132.179C92.5 132.485 92.632 132.62 92.8961 132.62H99.2997C99.5307 132.586 99.6958 132.383 99.6628 132.145V121.247C100.29 121.247 100.752 121.247 101.082 121.281C101.412 121.315 101.94 121.315 102.733 121.315C105.439 121.315 107.915 121.009 110.159 120.16C112.305 119.346 114.153 117.92 115.474 116.019C116.794 114.117 117.454 111.707 117.454 108.787C117.454 107.259 117.19 105.799 116.695 104.374C116.167 102.914 115.342 101.59 114.285 100.503C113.031 99.247 111.513 98.2964 109.862 97.7192C108.014 97.0063 105.769 96.6667 103.063 96.6667C102.072 96.6667 101.082 96.6667 100.059 96.7007C99.5649 96.7171 99.0862 96.7256 98.623 96.7338C98.1267 96.7426 97.6481 96.751 97.1872 96.7686C96.7549 96.7851 96.3382 96.7935 95.9332 96.8018C95.5032 96.8105 95.0865 96.819 94.6785 96.8365C93.9194 96.8705 93.3912 96.8705 92.8301 96.8705C92.5991 96.8705 92.5 97.0063 92.5 97.2439ZM99.6958 114.83V103.423C99.9268 103.389 100.389 103.355 101.049 103.389C101.676 103.355 102.435 103.355 103.294 103.355C104.647 103.321 105.967 103.525 107.189 104.034C108.146 104.407 108.938 105.086 109.499 105.969C110.027 106.886 110.291 107.938 110.258 108.991C110.258 110.485 109.928 111.639 109.235 112.488C108.509 113.336 107.585 113.982 106.528 114.287C105.307 114.694 104.02 114.898 102.733 114.898H100.983C100.615 114.898 100.219 114.869 99.7947 114.838C99.7619 114.835 99.7289 114.833 99.6958 114.83Z" fill="#31A8FF"/>
<path d="M134.882 111.605C136.005 111.843 137.061 112.216 138.051 112.759C138.183 112.827 138.348 112.827 138.645 112.759C138.744 112.691 138.81 112.556 138.81 112.42V106.886C138.81 106.75 138.777 106.614 138.744 106.479C138.678 106.343 138.546 106.207 138.414 106.173C137.523 105.8 136.566 105.528 135.576 105.392C134.222 105.188 132.836 105.087 131.483 105.087C129.139 105.087 127.191 105.46 125.64 106.275C124.221 106.954 122.999 108.04 122.174 109.398C121.448 110.654 121.052 112.046 121.052 113.506C121.019 114.695 121.283 115.883 121.811 116.969C122.438 118.124 123.296 119.108 124.32 119.855C125.772 120.874 127.323 121.688 129.007 122.299C130.624 122.945 131.714 123.454 132.242 123.895C132.77 124.337 133.034 124.778 133.034 125.253C133.034 125.864 132.671 126.441 132.143 126.679C131.549 126.985 130.657 127.154 129.403 127.154C128.083 127.154 126.762 126.985 125.508 126.645C124.056 126.306 122.702 125.762 121.415 124.982C121.316 124.914 121.217 124.88 121.118 124.948C121.019 125.016 120.986 125.151 120.986 125.253V131.161C120.953 131.432 121.118 131.67 121.349 131.806C122.405 132.315 123.561 132.688 124.716 132.892C126.201 133.198 127.687 133.333 129.205 133.333C131.582 133.333 133.562 132.96 135.179 132.247C136.665 131.636 137.952 130.583 138.876 129.225C139.735 127.901 140.197 126.306 140.164 124.71C140.197 123.488 139.933 122.299 139.404 121.213C138.777 120.059 137.886 119.108 136.797 118.395C135.212 117.377 133.496 116.528 131.714 115.917C130.921 115.577 130.129 115.204 129.37 114.796C128.941 114.559 128.545 114.253 128.248 113.88C128.05 113.608 127.918 113.303 127.918 112.997C127.918 112.691 128.017 112.352 128.182 112.08C128.413 111.741 128.776 111.503 129.205 111.401C129.832 111.232 130.525 111.13 131.185 111.164C132.44 111.164 133.661 111.333 134.882 111.605Z" fill="#31A8FF"/>
</g>
<defs>
<clipPath id="clip0_195_3224">
<rect width="80" height="80" fill="white" transform="translate(75 75)"/>
</clipPath>
</defs>
</svg>
