<svg width="230" height="230" viewBox="0 0 230 230" fill="none" xmlns="http://www.w3.org/2000/svg">
<rect width="230" height="230" fill="white" fill-opacity="0.04"/>
<g clip-path="url(#clip0_195_3221)">
<path d="M93.3111 124.912C93.3111 129.271 89.7908 132.794 85.4352 132.794C81.0796 132.794 77.5594 129.271 77.5594 124.912C77.5594 120.553 81.0796 117.03 85.4352 117.03H93.3111V124.912Z" fill="#E01E5A"/>
<path d="M97.2506 124.912C97.2506 120.553 100.771 117.03 105.126 117.03C109.482 117.03 113.002 120.553 113.002 124.912V144.618C113.002 148.977 109.482 152.5 105.126 152.5C100.771 152.5 97.2506 148.977 97.2506 144.618V124.912Z" fill="#E01E5A"/>
<path d="M105.126 93.2643C100.771 93.2643 97.2506 89.7412 97.2506 85.3821C97.2506 81.0231 100.771 77.5 105.126 77.5C109.482 77.5 113.002 81.0231 113.002 85.3821V93.2643H105.126Z" fill="#36C5F0"/>
<path d="M105.125 97.2651C109.481 97.2651 113.001 100.788 113.001 105.147C113.001 109.506 109.481 113.029 105.125 113.029H85.3759C81.0203 113.029 77.5 109.506 77.5 105.147C77.5 100.788 81.0203 97.2651 85.3759 97.2651H105.125Z" fill="#36C5F0"/>
<path d="M136.689 105.147C136.689 100.788 140.21 97.2651 144.565 97.2651C148.921 97.2651 152.441 100.788 152.441 105.147C152.441 109.506 148.921 113.029 144.565 113.029H136.689V105.147Z" fill="#2EB67D"/>
<path d="M132.75 105.147C132.75 109.506 129.23 113.029 124.874 113.029C120.519 113.029 116.999 109.506 116.999 105.147V85.3821C116.999 81.0231 120.519 77.5 124.874 77.5C129.23 77.5 132.75 81.0231 132.75 85.3821V105.147Z" fill="#2EB67D"/>
<path d="M124.874 136.736C129.23 136.736 132.75 140.259 132.75 144.618C132.75 148.977 129.23 152.5 124.874 152.5C120.519 152.5 116.999 148.977 116.999 144.618V136.736H124.874Z" fill="#ECB22E"/>
<path d="M124.874 132.794C120.519 132.794 116.999 129.271 116.999 124.912C116.999 120.553 120.519 117.03 124.874 117.03H144.624C148.979 117.03 152.5 120.553 152.5 124.912C152.5 129.271 148.979 132.794 144.624 132.794H124.874Z" fill="#ECB22E"/>
</g>
<defs>
<clipPath id="clip0_195_3221">
<rect width="120" height="120" fill="white" transform="translate(55 55)"/>
</clipPath>
</defs>
</svg>
